<svg xmlns="http://www.w3.org/2000/svg" width="28" height="28" viewBox="0 0 48 48"><g><path fill="#fff" d="M44 39a3 3 0 0 1-3 3H7a3 3 0 0 1-3-3V9a3 3 0 0 1 3-3h34a3 3 0 0 1 3 3v30z"/><path fill="#f44336" d="M44 9v4.68L24 27.36L4 13.68V9a3 3 0 0 1 3-3h34a3 3 0 0 1 3 3z"/><path fill="#e53935" d="M44 9v4.68L24 27.36V6h17a3 3 0 0 1 3 3z"/><path fill="#c62828" d="M44 39a3 3 0 0 1-3 3H7a3 3 0 0 1-3-3V13.68l20 13.68l20-13.68V39z"/><path fill="#b71c1c" d="M44 39a3 3 0 0 1-3 3H24V27.36l20-13.68V39z"/></g></svg> 